<?xml version="1.0" encoding="UTF-8"?>
<svg width="41px" height="41px" viewBox="0 0 41 41" version="1.1" xmlns="http://www.w3.org/2000/svg" xmlns:xlink="http://www.w3.org/1999/xlink">
    <title>buy</title>
    <g id="setup-onboarding" stroke="none" stroke-width="1" fill="none" fill-rule="evenodd">
        <g id="start" transform="translate(-244.000000, -774.000000)" fill="#009874" fill-rule="nonzero">
            <g id="buy" transform="translate(244.000000, 774.000000)">
                <path d="M37.7812709,0 L3.21881,0 C1.44398618,0 0,1.44964774 0,3.23153011 L0,22.7684699 C0,24.5503523 1.44398618,26 3.21881,26 L11.1800308,26 C11.6286722,26 11.9922781,25.6348668 11.9922781,25.1845224 C11.9922781,24.7341779 11.6285913,24.3690448 11.1799499,24.3690448 L3.21881,24.3690448 C2.33973174,24.3690448 1.62457547,23.6510443 1.62457547,22.7684699 L1.62457547,3.23153011 C1.62457547,2.34895571 2.33973174,1.63095524 3.21881,1.63095524 L37.7812709,1.63095524 C38.6603492,1.63095524 39.3755054,2.34895571 39.3755054,3.23153011 L39.3755054,22.7684699 C39.3755054,23.6510443 38.6603492,24.3690448 37.7812709,24.3690448 L35.3420209,24.3690448 C34.8933795,24.3690448 34.5297736,24.7341779 34.5297736,25.1845224 C34.5297736,25.6348668 34.8934604,26 35.3420209,26 L37.7812709,26 C39.5560947,26 41,24.5503523 41,22.7684699 L41,3.23153011 C41,1.44964774 39.5560947,0 37.7812709,0 Z" id="Path"></path>
                <path d="M40.9991511,29.6561948 C40.97825,29.0065423 40.5713755,28.4406815 39.962785,28.2145834 L39.962785,28.2145014 L26.3526527,23.1588494 C25.4309558,22.8166247 24.426638,23.0362394 23.7315744,23.7320143 C23.0364289,24.4277891 22.8168445,25.4333717 23.1584748,26.3561474 L28.1949811,39.9610156 C28.4217784,40.5735732 28.9897142,40.9811243 29.6419101,40.9993435 C29.6571556,41 29.6722372,41 29.6873187,41 C30.3213184,41 30.8899099,40.6284769 31.1443294,40.0434943 L32.5374893,36.8411081 L35.5579014,39.8662268 C36.4175508,40.7272051 37.8166122,40.7275333 38.6765895,39.8667192 L39.8417226,38.7003649 C40.258269,38.283376 40.4877711,37.7289227 40.4878531,37.139098 C40.4879351,36.5493554 40.2585969,35.99482 39.8422144,35.5777491 L36.8599161,32.5910383 L40.0578645,31.1616552 C40.6506357,30.8966567 41.0201341,30.3057652 40.9991511,29.6561948 Z M35.0970939,31.5742945 C34.8497233,31.6848405 34.6725969,31.9101999 34.6233359,32.1768398 C34.5741569,32.4434796 34.6590726,32.7173414 34.850543,32.909217 L38.6783107,36.7428724 C38.8964197,36.9613381 38.8964197,37.3166938 38.6782288,37.5350774 L37.5130956,38.7014318 C37.4074427,38.8072178 37.2669546,38.8654042 37.1175323,38.8654042 L37.1174503,38.8654042 C36.9679461,38.8654042 36.827458,38.8071357 36.721805,38.7012676 L32.8473992,34.8209154 C32.6549453,34.6281371 32.3797886,34.5434426 32.1122547,34.5939146 C31.8448027,34.6446328 31.6197267,34.8245264 31.5110411,35.0744243 L29.6904334,39.259414 L24.7016308,25.783557 C24.5281108,25.314783 24.8058903,24.9867561 24.8951503,24.8973838 C24.9639189,24.8286106 25.1740773,24.6478141 25.4810364,24.6478141 C25.5725914,24.6478141 25.6728346,24.6638995 25.7802908,24.7038668 L39.2632953,29.7122474 L35.0970939,31.5742945 Z M39.3909149,29.7597649 C39.3907509,29.7596008 39.390587,29.7595187 39.3903411,29.7594367 L39.6765631,28.98701 L39.3909149,29.7597649 Z" id="Shape"></path>
                <path d="M22.7572017,21.5850177 L20.4150436,19.2426763 C20.0913125,18.9191079 19.5665396,18.9191079 19.2428086,19.2426763 C18.9190776,19.5664099 18.9190776,20.0911868 19.242726,20.4149204 L21.5849668,22.7572618 C21.7468736,22.9190873 21.9588963,23 22.1710842,23 C22.3831896,23 22.5953775,22.9190873 22.7572017,22.7572618 C23.0809328,22.4335282 23.0809328,21.9087513 22.7572017,21.5850177 Z" id="Path"></path>
                <path d="M21.1661683,24 L17.8338317,24 C17.3732682,24 17,24.4477538 17,25 C17,25.5522462 17.3733513,26 17.8338317,26 L21.1661683,26 C21.6266487,26 22,25.5522462 22,25 C22,24.4477538 21.6266487,24 21.1661683,24 Z" id="Path"></path>
                <path d="M25.5,17 C25.2238769,17 25,17.3733513 25,17.8338317 L25,21.1661683 C25,21.6266487 25.2238769,22 25.5,22 C25.7761231,22 26,21.6266487 26,21.1661683 L26,17.8338317 C26,17.3733513 25.7761231,17 25.5,17 Z" id="Path"></path>
                <path d="M31.7572067,18.2427104 C31.4334824,17.9191378 30.9087203,17.9190552 30.584996,18.2427104 L28.2428036,20.5849995 C27.9190792,20.9087372 27.9190792,21.4335209 28.242721,21.7572586 C28.4046245,21.9190862 28.6167254,22 28.828909,22 C29.0410099,22 29.2531935,21.9190862 29.4150144,21.7572586 L31.7572067,19.4149696 C32.0809311,19.0912318 32.0809311,18.5664481 31.7572067,18.2427104 Z" id="Path"></path>
                <path d="M21.7572333,28.2426763 C21.4335031,27.9191079 20.908649,27.9191079 20.5850014,28.2426763 L18.2427667,30.5850177 C17.9190365,30.9087513 17.9191191,31.4335282 18.2427667,31.7572618 C18.4045905,31.9190873 18.6166953,32 18.8288827,32 C19.04107,32 19.2531748,31.9190873 19.4149986,31.7572618 L21.7572333,29.4149204 C22.0809635,29.0911868 22.0808809,28.5664099 21.7572333,28.2426763 Z" id="Path"></path>
                <ellipse id="Oval" cx="14.5" cy="25" rx="1" ry="1"></ellipse>
                <path d="M14.6823028,12.582808 C15.3603412,12.2680907 15.7697228,11.5293827 15.7697228,10.4076409 C15.7697228,8.46511245 14.5287846,8 13.1982942,8 L10.7292111,8 C10.358209,8 10,8.19151689 10,8.56087089 L10,17.4527265 C10,17.7400842 10.2814499,18 10.7292111,18 L13.4413646,18 C14.8869936,18 16,17.2339324 16,15.0998871 L16,14.8126118 C16,13.4445516 15.4626866,12.9111226 14.6823028,12.582808 Z M11.6503198,9.55949467 L13.0703625,9.55949467 C13.7228145,9.55949467 14.1066098,9.99716515 14.1066098,10.708596 C14.1066098,11.4061823 13.7739872,11.8849745 13.0831557,11.8849745 L11.6503198,11.8849745 L11.6503198,9.55949467 L11.6503198,9.55949467 Z M14.3369641,14.9493271 C14.3369641,15.9889903 13.8764097,16.4405053 13.0960259,16.4405053 L11.6503969,16.4405053 L11.6503969,13.2803942 L13.0960259,13.2803942 C13.8764097,13.2803942 14.3369641,13.663428 14.3369641,14.7304507 L14.3369641,14.9493271 Z" id="Shape"></path>
                <path d="M22.1875,8 C21.775,8 21.375,8.16282092 21.375,8.54273641 L21.375,14.8927523 C21.375,15.9510883 20.8625,16.4531195 20,16.4531195 C19.1375,16.4531195 18.625,15.9510883 18.625,14.8927523 L18.625,8.54273641 C18.625,8.16273918 18.2125,8 17.8125,8 C17.4,8 17,8.16282092 17,8.54273641 L17,14.8927523 C17,17.1586768 18.3125,18 20,18 C21.675,18 23,17.1586768 23,14.8927523 L23,8.54273641 C23,8.16273918 22.5875,8 22.1875,8 Z" id="Path"></path>
                <path d="M29.9172662,8 C29.6528777,8 29.5395683,8.123118 29.426259,8.35559182 L27.5,12.30913 L25.5863309,8.35559182 C25.4730216,8.10943822 25.3471223,8 25.0827338,8 C24.6420863,8 24,8.3008727 24,8.738708 C24,8.77974734 24.0125899,8.84814623 24.0377698,8.91654511 L26.6438849,13.8139056 C26.6690647,13.8549449 26.6816547,13.9233438 26.6816547,13.9917427 L26.6816547,17.4390467 C26.6816547,17.8084831 27.0971223,18 27.5,18 C27.9154676,18 28.3183453,17.8084007 28.3183453,17.4390467 L28.3183453,13.9917427 C28.3183453,13.9233438 28.3435252,13.8549449 28.368705,13.8139056 L30.9622302,8.91654511 C31,8.84814623 31,8.77974734 31,8.738708 C31,8.3008727 30.3579137,8 29.9172662,8 Z" id="Path"></path>
            </g>
        </g>
    </g>
</svg>