<?xml version="1.0" encoding="UTF-8"?>
<svg width="20px" height="20px" viewBox="0 0 20 20" version="1.1" xmlns="http://www.w3.org/2000/svg" xmlns:xlink="http://www.w3.org/1999/xlink">
    <g id="Page-1" stroke="none" stroke-width="1" fill="none" fill-rule="evenodd">
        <g id="GetPaid">
            <path d="M8.6625,2 L17.99,2 L17.99,11.3275 L15.325,8.6625 L15.325,4.665 L11.3275,4.665 L8.6625,2 Z M13.8183726,13.8193447 L9.995,9.995 L11.99375,7.99625 L15.5505305,11.5544217 C15.5508337,11.5536632 15.5511368,11.5529046 15.5514397,11.5521459 L17.6663018,13.666611 C16.2452079,16.2439624 13.5012204,17.99 10.3493127,17.99 C5.73811465,17.99 2,14.2529046 2,9.64296376 C2,6.49166249 3.7467943,3.74823566 6.32518907,2.32762753 L8.66642708,4.668426 C6.71216146,5.4481397 5.33125,7.35765687 5.33125,9.58962242 C5.33125,12.5148303 7.70319337,14.8861798 10.6291339,14.8861798 C11.8265224,14.8861798 12.9311327,14.4890479 13.8183726,13.8193447 Z" id="Combined-Shape" fill="black" fill-rule="nonzero"></path>
        </g>
    </g>
</svg>
