<?xml version="1.0" encoding="UTF-8"?>
<svg width="480px" height="480px" viewBox="0 0 480 480" version="1.1" xmlns="http://www.w3.org/2000/svg" xmlns:xlink="http://www.w3.org/1999/xlink">
    <g id="Page-1" stroke="none" stroke-width="1" fill="none" fill-rule="evenodd">
        <path d="M200,0 L480,0 L480,280 L400,200 L400,80 L280,80 L200,0 Z M354.772912,354.802091 L240,240 L300,180 L406.770145,286.811908 C406.779248,286.789139 406.788346,286.766367 406.797439,286.743593 L470.282981,350.217217 C427.623502,427.586112 345.252395,480 250.63603,480 C112.213573,480 0,367.817023 0,229.432308 C0,134.834146 52.4366018,52.4798697 129.83682,9.83497272 L200.117886,80.1028442 C141.453252,103.508884 100,160.830225 100,227.831067 C100,315.642186 171.202803,386.827162 259.035913,386.827162 C294.980036,386.827162 328.139068,374.905752 354.772912,354.802091 Z" id="Combined-Shape" fill="#000000"></path>
    </g>
</svg>
