<?xml version="1.0" encoding="UTF-8"?>
<svg width="42px" height="48px" viewBox="0 0 42 48" version="1.1" xmlns="http://www.w3.org/2000/svg" xmlns:xlink="http://www.w3.org/1999/xlink">
    <title>invoices</title>
    <g id="setup-onboarding" stroke="none" stroke-width="1" fill="none" fill-rule="evenodd">
        <g id="start" transform="translate(-243.000000, -896.000000)" fill="#009874" fill-rule="nonzero">
            <g id="invoices" transform="translate(243.000000, 896.000000)">
                <path d="M18.5,16.4 C18.5,22.1897 23.2103,26.9 29,26.9 C34.7897,26.9 39.5,22.1897 39.5,16.4 C39.5,10.6103 34.7897,5.9 29,5.9 C23.2103,5.9 18.5,10.6103 18.5,16.4 Z M37.9,16.4 C37.9,21.3075 33.9075,25.3 29,25.3 C24.0925,25.3 20.1,21.3075 20.1,16.4 C20.1,11.4925 24.0925,7.5 29,7.5 C33.9075,7.5 37.9,11.4925 37.9,16.4 Z M29,11 C29.4418,11 29.8,11.3582 29.8,11.8 L29.8,12.1376 C30.7311,12.4679 31.4,13.3571 31.4,14.4 C31.4,14.8418 31.0418,15.2 30.6,15.2 C30.1582,15.2 29.8,14.8418 29.8,14.4 C29.8,13.9589 29.4411,13.6 29,13.6 C28.5589,13.6 28.2,13.9589 28.2,14.4 L28.2,14.7237 C28.2,15.0755 28.4256,15.3823 28.7614,15.4873 L29.7158,15.7855 C30.7232,16.1004 31.4,17.021 31.4,18.0763 L31.4,18.4 C31.4,19.5519 30.5841,20.5166 29.5,20.7473 L29.5,21 C29.5,21.4418 29.1418,21.8 28.7,21.8 C28.2582,21.8 27.9,21.4418 27.9,21 L27.9,20.532 C27.1286,20.1324 26.6,19.327 26.6,18.4 C26.6,17.9582 26.9582,17.6 27.4,17.6 C27.8418,17.6 28.2,17.9582 28.2,18.4 C28.2,18.8411 28.5589,19.2 29,19.2 C29.4411,19.2 29.8,18.8411 29.8,18.4 L29.8,18.0763 C29.8,17.7245 29.5744,17.4177 29.2386,17.3127 L28.2842,17.0145 C27.2768,16.6996 26.6,15.779 26.6,14.7237 L26.6,14.4 C26.6,13.3571 27.2689,12.4679 28.2,12.1376 L28.2,11.8 C28.2,11.3582 28.5582,11 29,11 L29,11 Z M42,32.2 L42,42.4 C42,45.4879 39.4878,48 36.4,48 L5.6,48 C2.5122,48 0,45.4879 0,42.4 L0,3.2 C0,1.4355 1.4355,0 3.2,0 L29.2,0 C30.9645,0 32.4,1.4355 32.4,3.2 C32.4,3.6418 32.0418,4 31.6,4 C31.1582,4 30.8,3.6418 30.8,3.2 C30.8,2.3178 30.0822,1.6 29.2,1.6 L3.2,1.6 C2.3178,1.6 1.6,2.3178 1.6,3.2 L1.6,42.4 C1.6,44.6056 3.3944,46.4 5.6,46.4 L32.4862,46.4 C31.4467,45.3828 30.8,43.9658 30.8,42.4 L30.8,29.9 C30.8,29.4582 31.1582,29.1 31.6,29.1 C32.0418,29.1 32.4,29.4582 32.4,29.9 L32.4,42.4 C32.4,44.6056 34.1944,46.4 36.4,46.4 C38.6056,46.4 40.4,44.6056 40.4,42.4 L40.4,32.2 C40.4,31.3178 39.6822,30.6 38.8,30.6 L35.4,30.6 C34.9582,30.6 34.6,30.2418 34.6,29.8 C34.6,29.3582 34.9582,29 35.4,29 L38.8,29 C40.5645,29 42,30.4355 42,32.2 Z M7,21.5 C7,21.0582 7.3582,20.7 7.8,20.7 L14.6,20.7 C15.0418,20.7 15.4,21.0582 15.4,21.5 C15.4,21.9418 15.0418,22.3 14.6,22.3 L7.8,22.3 C7.3582,22.3 7,21.9418 7,21.5 Z M7,12.5 C7,12.0582 7.3582,11.7 7.8,11.7 L14.6,11.7 C15.0418,11.7 15.4,12.0582 15.4,12.5 C15.4,12.9418 15.0418,13.3 14.6,13.3 L7.8,13.3 C7.3582,13.3 7,12.9418 7,12.5 Z M25.4,30.5 C25.4,30.9418 25.0418,31.3 24.6,31.3 L7.8,31.3 C7.3582,31.3 7,30.9418 7,30.5 C7,30.0582 7.3582,29.7 7.8,29.7 L24.6,29.7 C25.0418,29.7 25.4,30.0582 25.4,30.5 Z M25.4,38.9 C25.4,39.3418 25.0418,39.7 24.6,39.7 L7.8,39.7 C7.3582,39.7 7,39.3418 7,38.9 C7,38.4582 7.3582,38.1 7.8,38.1 L24.6,38.1 C25.0418,38.1 25.4,38.4582 25.4,38.9 Z" id="Shape"></path>
            </g>
        </g>
    </g>
</svg>