<?xml version="1.0" encoding="UTF-8"?>
<svg width="41px" height="41px" viewBox="0 0 41 41" version="1.1" xmlns="http://www.w3.org/2000/svg" xmlns:xlink="http://www.w3.org/1999/xlink">
    <title>payment</title>
    <g id="setup-onboarding" stroke="none" stroke-width="1" fill="none" fill-rule="evenodd">
        <g id="start" transform="translate(-471.000000, -903.000000)" fill="#009874" fill-rule="nonzero">
            <g id="payment" transform="translate(471.000000, 903.000000)">
                <path d="M38.95,23.2333333 L27.3333333,23.2333333 L27.3333333,11.5989 C28.1906215,10.959028 28.6968835,9.95308539 28.7,8.88333333 L28.7,6.15 C28.7,6.00214702 28.6520451,5.85828238 28.5633333,5.74 L24.4633333,0.273333333 C24.3342828,0.101266008 24.1317508,0 23.9166667,0 L4.78333333,0 C4.56824918,0 4.36571716,0.101266008 4.23666667,0.273333333 L0.136666667,5.74 C0.0479548791,5.85828238 0,6.00214702 0,6.15 L0,8.88333333 C0.00311645542,9.95308539 0.509378475,10.959028 1.36666667,11.5989 L1.36666667,25.2833333 C1.36892585,27.1693697 2.89729701,28.6977408 4.78333333,28.7 L16.4,28.7 L16.4,38.95 C16.4,40.0821837 17.3178163,41 18.45,41 L36.2166667,41 C37.3488504,41 38.2666667,40.0821837 38.2666667,38.95 L38.2666667,38.2666667 L38.95,38.2666667 C40.0821837,38.2666667 41,37.3488504 41,36.2166667 L41,25.2833333 C41,24.1511496 40.0821837,23.2333333 38.95,23.2333333 L38.95,23.2333333 Z M25.2833333,10.9333333 C24.1511496,10.9333333 23.2333333,10.0155171 23.2333333,8.88333333 L21.8666667,8.88333333 C21.8666667,10.0155171 20.9488504,10.9333333 19.8166667,10.9333333 C18.6844829,10.9333333 17.7666667,10.0155171 17.7666667,8.88333333 L16.4,8.88333333 C16.4,10.015517 15.4821837,10.9333333 14.35,10.9333333 C13.2178163,10.9333333 12.3,10.015517 12.3,8.88333333 L10.9333333,8.88333333 C10.9333333,10.0155171 10.0155171,10.9333333 8.88333333,10.9333333 C7.7511496,10.9333333 6.83333333,10.0155171 6.83333333,8.88333333 L5.46666667,8.88333333 C5.46666667,10.0155171 4.5488504,10.9333333 3.41666667,10.9333333 C2.28448293,10.9333333 1.36666667,10.0155171 1.36666667,8.88333333 L1.36666667,6.83333333 L27.3333333,6.83333333 L27.3333333,8.88333333 C27.3333333,10.0155171 26.4155171,10.9333333 25.2833333,10.9333333 L25.2833333,10.9333333 Z M5.125,1.36666667 L23.575,1.36666667 L26.65,5.46666667 L2.05,5.46666667 L5.125,1.36666667 Z M2.73333333,25.2833333 L2.73333333,12.2316667 C4.03211518,12.4978237 5.36688557,11.9826023 6.15,10.9128333 C6.7874054,11.7851878 7.80292231,12.3008953 8.88333333,12.3008953 C9.96374435,12.3008953 10.9792613,11.7851878 11.6166667,10.9128333 C12.2540721,11.7851878 13.269589,12.3008953 14.35,12.3008953 C15.430411,12.3008953 16.4459279,11.7851878 17.0833333,10.9128333 C17.7207387,11.7851878 18.7362556,12.3008953 19.8166667,12.3008953 C20.8970777,12.3008953 21.9125946,11.7851878 22.55,10.9128333 C23.3331144,11.9826023 24.6678848,12.4978237 25.9666667,12.2316667 L25.9666667,23.2333333 L21.1833333,23.2333333 C20.0511496,23.2333333 19.1333333,24.1511496 19.1333333,25.2833333 L19.1333333,25.9666667 L18.45,25.9666667 C17.5843633,25.9702551 16.8142739,26.5171936 16.5257333,27.3333333 L4.78333333,27.3333333 C3.6511496,27.3333333 2.73333333,26.4155171 2.73333333,25.2833333 L2.73333333,25.2833333 Z M36.9,38.95 C36.9,39.3273946 36.5940612,39.6333333 36.2166667,39.6333333 L18.45,39.6333333 C18.0726054,39.6333333 17.7666667,39.3273946 17.7666667,38.95 L17.7666667,28.0166667 C17.7666667,27.6392721 18.0726054,27.3333333 18.45,27.3333333 L36.2166667,27.3333333 C36.5940612,27.3333333 36.9,27.6392721 36.9,28.0166667 L36.9,38.95 Z M39.6333333,36.2166667 C39.6333333,36.5940612 39.3273946,36.9 38.95,36.9 L38.2666667,36.9 L38.2666667,28.0166667 C38.2666667,26.8844829 37.3488504,25.9666667 36.2166667,25.9666667 L20.5,25.9666667 L20.5,25.2833333 C20.5,24.9059388 20.8059388,24.6 21.1833333,24.6 L38.95,24.6 C39.3273946,24.6 39.6333333,24.9059388 39.6333333,25.2833333 L39.6333333,36.2166667 Z" id="Shape"></path>
                <path d="M33,36 C32.6491666,36.0025336 32.305582,36.0751973 32.0046667,36.2105 C31.70095,36.0741302 31.3539788,36.001432 31,36 C29.8954305,36 29,36.6715729 29,37.5 C29,38.3284271 29.8954305,39 31,39 C31.3539788,38.998568 31.70095,38.9258698 32.0046667,38.7895 C32.305582,38.9248027 32.6491666,38.9974664 33,39 C34.1045695,39 35,38.3284271 35,37.5 C35,36.6715729 34.1045695,36 33,36 L33,36 Z M31,38 C30.6318102,38 30.3333333,37.7761424 30.3333333,37.5 C30.3333333,37.2238576 30.6318102,37 31,37 C31.3681898,37 31.6666667,37.2238576 31.6666667,37.5 C31.6666667,37.7761424 31.3681898,38 31,38 Z M33,38 C32.961061,37.9964078 32.9226658,37.9900458 32.8853333,37.981 C33.0382366,37.6705861 33.0382366,37.3294139 32.8853333,37.019 C32.9226658,37.0099542 32.961061,37.0035922 33,37 C33.3681898,37 33.6666667,37.2238576 33.6666667,37.5 C33.6666667,37.7761424 33.3681898,38 33,38 L33,38 Z" id="Shape"></path>
                <path d="M20.75,32 L25.25,32 C25.6642136,32 26,31.7761424 26,31.5 L26,29.5 C26,29.2238576 25.6642136,29 25.25,29 L20.75,29 C20.3357864,29 20,29.2238576 20,29.5 L20,31.5 C20,31.7761424 20.3357864,32 20.75,32 Z M21.5,30 L24.5,30 L24.5,31 L21.5,31 L21.5,30 Z" id="Shape"></path>
                <polygon id="Path" points="34 30 35 30 35 32 34 32"></polygon>
                <polygon id="Path" points="31 30 32 30 32 32 31 32"></polygon>
                <polygon id="Path" points="29 30 30 30 30 32 29 32"></polygon>
                <polygon id="Path" points="20 38 21 38 21 39 20 39"></polygon>
                <polygon id="Path" points="22 38 23 38 23 39 22 39"></polygon>
                <polygon id="Path" points="23 38 24 38 24 39 23 39"></polygon>
                <polygon id="Path" points="20 34 27 34 27 35 20 35"></polygon>
                <path d="M16.8724036,24.2994357 L17.9910856,17.2937584 C18.0226188,17.097061 17.9696064,16.8958492 17.8461433,16.7436212 C17.7226802,16.5913933 17.5412777,16.5035755 17.3501673,16.503517 L15.5171149,16.503517 L16.0410299,13.2238452 L14.7591932,13 L14.1995272,16.503517 L8.80047281,16.503517 L8.2408068,13 L6.95897015,13.2238452 L7.48288513,16.503517 L5.64983271,16.503517 C5.45872232,16.5035755 5.27731984,16.5913933 5.15385672,16.7436212 C5.03039361,16.8958492 4.97738116,17.097061 5.00891439,17.2937584 L6.12759638,24.2994357 C6.28199348,25.282009 7.09685036,26.0024507 8.05100138,25.9999874 L14.9489986,25.9999874 C15.9031496,26.0024507 16.7180065,25.282009 16.8724036,24.2994357 L16.8724036,24.2994357 Z M7.41008305,24.0762688 L6.41750467,17.8601547 L16.5824953,17.8601547 L15.589917,24.0762688 C15.5378075,24.4033539 15.2667394,24.6431907 14.9489986,24.6433434 L8.05100138,24.6433434 C7.73326058,24.6431907 7.46219251,24.4033539 7.41008305,24.0762688 Z" id="Shape"></path>
                <polygon id="Path" points="11 20 12 20 12 23 11 23"></polygon>
                <polygon id="Path" points="13 20 14 20 14 23 13 23"></polygon>
                <polygon id="Path" points="9 20 10 20 10 23 9 23"></polygon>
            </g>
        </g>
    </g>
</svg>