<?xml version="1.0" encoding="UTF-8"?>
<svg width="41px" height="41px" viewBox="0 0 41 41" version="1.1" xmlns="http://www.w3.org/2000/svg" xmlns:xlink="http://www.w3.org/1999/xlink">
    <title>report</title>
    <g id="setup-onboarding" stroke="none" stroke-width="1" fill="none" fill-rule="evenodd">
        <g id="start" transform="translate(-471.000000, -779.000000)" fill="#009874" fill-rule="nonzero">
            <g id="report" transform="translate(471.000000, 779.000000)">
                <path d="M39.016129,19.8387097 L33.0645161,19.8387097 L33.0645161,5.67779738 L27.3867188,0 L0,0 L0,41 L33.0645161,41 L33.0645161,37.0322581 L39.016129,37.0322581 C40.1097767,37.0322581 41,36.1420347 41,35.0483871 L41,21.8225806 C41,20.728933 40.1097767,19.8387097 39.016129,19.8387097 Z M29.0967742,6.61290323 L29.0967742,10.5806452 L17.1935484,10.5806452 L17.1935484,3.96774194 L26.4516129,3.96774194 L26.4516129,6.61290323 L29.0967742,6.61290323 Z M27.7741935,5.29032258 L27.7741935,2.25768649 L30.8068296,5.29032258 L27.7741935,5.29032258 Z M31.7419355,39.6774194 L1.32258065,39.6774194 L1.32258065,1.32258065 L26.4516129,1.32258065 L26.4516129,2.64516129 L15.8709677,2.64516129 L15.8709677,11.9032258 L30.4193548,11.9032258 L30.4193548,6.61290323 L31.7419355,6.61290323 L31.7419355,19.8387097 L17.8548387,19.8387097 C16.7611911,19.8387097 15.8709677,20.728933 15.8709677,21.8225806 L15.8709677,35.0483871 C15.8709677,36.1420347 16.7611911,37.0322581 17.8548387,37.0322581 L31.7419355,37.0322581 L31.7419355,39.6774194 Z M39.6774194,35.0483871 C39.6774194,35.4126134 39.3810011,35.7096774 39.016129,35.7096774 L17.8548387,35.7096774 C17.4899666,35.7096774 17.1935484,35.4126134 17.1935484,35.0483871 L17.1935484,21.8225806 C17.1935484,21.4583543 17.4899666,21.1612903 17.8548387,21.1612903 L39.016129,21.1612903 C39.3810011,21.1612903 39.6774194,21.4583543 39.6774194,21.8225806 L39.6774194,35.0483871 Z" id="Shape"></path>
                <path d="M30,23.4 C30,22.6278808 29.4020183,22 28.6666667,22 L19.3333333,22 C18.5979817,22 18,22.6278808 18,23.4 L18,27.6 C18,28.3721192 18.5979817,29 19.3333333,29 L28.6666667,29 C29.4020182,29 30,28.3721192 30,27.6 L30,23.4 Z M28.6666667,27.6 L19.3333333,27.6 L19.3326823,23.4 L28.6666667,23.4 L28.6666667,27.6 Z" id="Shape"></path>
                <polygon id="Path" points="32 22 39 22 39 24 32 24"></polygon>
                <polygon id="Path" points="32 25 39 25 39 27 32 27"></polygon>
                <polygon id="Path" points="19 30 21 30 21 32 19 32"></polygon>
                <polygon id="Path" points="23 30 25 30 25 32 23 32"></polygon>
                <polygon id="Path" points="27 30 29 30 29 32 27 32"></polygon>
                <polygon id="Path" points="18 32 29 32 29 34 18 34"></polygon>
                <path d="M35.3333333,29 C35.1761067,29 35.0214843,29.0180054 34.8678385,29.0442505 C34.820638,29.0524902 34.7747396,29.06073 34.7285157,29.0711059 C34.608724,29.0982666 34.4912109,29.1318359 34.3766276,29.173645 C34.3059896,29.1992798 34.2386067,29.2301025 34.1705729,29.2612305 C34.1139323,29.2874756 34.0553385,29.3112793 34,29.3411866 C33.5960287,29.1187134 33.1367188,29 32.6666667,29 C31.1959635,29 30,30.1212158 30,31.5 C30,32.8787842 31.1959635,34 32.6666667,34 C33.1367188,34 33.5960287,33.8812866 34,33.6594238 C34.0553385,33.6893311 34.1132812,33.7131348 34.1705729,33.7393798 C34.2386067,33.7705078 34.3059896,33.8013305 34.3766276,33.8269653 C34.4912109,33.8687744 34.608724,33.9026489 34.7285157,33.9295044 C34.7747396,33.93927 34.8212891,33.9481202 34.8678385,33.9563598 C35.0214843,33.9819946 35.1761068,34 35.3333333,34 C36.8040365,34 38,32.8787842 38,31.5 C38,30.1212158 36.8040365,29 35.3333333,29 L35.3333333,29 Z M31.3333333,31.5 C31.3333333,30.8106079 31.9313151,30.25 32.6666667,30.25 C32.7832032,30.25 32.8974609,30.2701416 33.0094401,30.2994384 C32.7972005,30.6567993 32.6666667,31.062378 32.6666667,31.5 C32.6666667,31.937622 32.7972005,32.3432007 33.0094401,32.7005616 C32.8974609,32.7298584 32.7832032,32.75 32.6666667,32.75 C31.9313151,32.75 31.3333333,32.1893921 31.3333333,31.5 Z M35.3333333,32.75 C35.2486979,32.75 35.1660157,32.7405395 35.0852865,32.7261963 C35.0185547,32.7136841 34.9534505,32.6950684 34.8893229,32.6730957 C34.8792317,32.6700439 34.8688151,32.6676025 34.858724,32.6642456 C34.7099609,32.609314 34.569987,32.5281372 34.4466146,32.4237671 L34.3688151,32.3581543 C34.1419271,32.1344605 34,31.833252 34,31.5 C34,31.1655273 34.1425782,30.8637085 34.3707683,30.6394043 L34.4453125,30.5762329 C34.5693359,30.4718628 34.7086588,30.3912964 34.8580729,30.3363648 C34.8688151,30.3323975 34.8792317,30.3305664 34.889974,30.3269043 C34.9541016,30.3049316 35.0185547,30.2863159 35.0846354,30.2738037 C35.1660157,30.2594605 35.2486979,30.25 35.3333333,30.25 C36.0686849,30.25 36.6666667,30.8106079 36.6666667,31.5 C36.6666667,32.1893921 36.0686849,32.75 35.3333333,32.75 L35.3333333,32.75 Z" id="Shape"></path>
                <path d="M14.0226132,26 L11.5088865,28.9900228 L3,28.9900228 L3,38 L13.2322725,38 L13.2322725,28.9900228 L13.1848084,28.9900228 L15,26.8314872 L14.0226132,26 Z M11.9532385,36.7128604 L4.27903406,36.7128604 L4.27903406,30.2771624 L10.4265789,30.2771624 L7.43758623,33.8321942 L6.01085115,32.3964176 L5.10653409,33.3064656 L7.51690129,35.7321078 L11.9538629,30.4547097 L11.9538629,36.7128604 L11.9532385,36.7128604 Z" id="Shape"></path>
                <path d="M17,16.0113932 C17,14.530599 16.0510475,13.2125651 14.6919389,12.8059896 L12.5454545,12.1640625 L12.5454545,11.8238932 C13.6979314,10.9794922 14.4545455,9.58138017 14.4545455,8 L14.4545455,6.66666667 C14.4545455,4.0934245 12.4556552,2 10,2 C7.5443448,2 5.54545455,4.0934245 5.54545455,6.66666667 L5.54545455,8 C5.54545455,9.58138017 6.30206856,10.9801432 7.45454545,11.8238932 L7.45454545,12.1640625 L5.30806108,12.8066407 C3.94895245,13.2125651 3,14.530599 3,16.0113932 L3,18 L17,18 L17,16.0113932 Z M6.81818182,8 L6.81818182,6.66666667 C6.81818182,4.828776 8.24564982,3.33333333 10,3.33333333 C11.7543502,3.33333333 13.1818182,4.828776 13.1818182,6.66666667 L13.1818182,8 C13.1818182,9.83789067 11.7543502,11.3333333 10,11.3333333 C8.24564982,11.3333333 6.81818182,9.83789067 6.81818182,8 Z M11.1701882,12.4980468 L10,13.7239583 L8.82981175,12.4980468 C9.20330256,12.6048177 9.59450464,12.6666667 10,12.6666667 C10.4054954,12.6666667 10.7966974,12.6048177 11.1701882,12.4980468 Z M15.7272727,16.6666667 L4.27272727,16.6666667 L4.27272727,16.0113932 C4.27272727,15.1227213 4.84228514,14.3320312 5.65731534,14.0878907 L7.90571733,13.4153646 L10,15.609375 L12.0942827,13.4153646 L14.3426847,14.0878907 C15.1577149,14.3326823 15.7272727,15.1233724 15.7272727,16.0113932 L15.7272727,16.6666667 Z" id="Shape"></path>
                <polygon id="Path" points="2 20 14 20 14 22 2 22"></polygon>
                <polygon id="Path" points="2 22 14 22 14 24 2 24"></polygon>
                <polygon id="Path" points="3 25 11 25 11 27 3 27"></polygon>
                <polygon id="Path" points="18 17 30 17 30 19 18 19"></polygon>
                <polygon id="Path" points="18 14 30 14 30 16 18 16"></polygon>
            </g>
        </g>
    </g>
</svg>