<svg xmlns="http://www.w3.org/2000/svg" width="194" height="36" viewBox="0 0 194 36">
  <g fill="none" fill-rule="evenodd">
    <rect width="194" height="36" fill="#FFF" rx="8"/>
    <path fill="#555ABF" d="M89.469 14.432L86.51 22 84.926 22 81.956 14.432 83.837 14.432 85.718 19.525 87.599 14.432 89.469 14.432zM90.327 22L90.327 14.432 95.101 14.432 95.101 15.928 92.164 15.928 92.164 17.435 94.672 17.435 94.672 18.876 92.164 18.876 92.164 20.504 95.189 20.504 95.189 22 90.327 22zM98.401 15.884L98.401 17.886 99.237 17.886C99.864 17.886 100.315 17.457 100.315 16.885 100.315 16.291 99.864 15.884 99.237 15.884L98.401 15.884zM96.608 22L96.608 14.432 99.479 14.432C101.041 14.432 102.152 15.444 102.152 16.885 102.152 17.864 101.635 18.656 100.766 19.074L102.449 22 100.491 22 99.017 19.327 98.401 19.327 98.401 22 96.608 22zM103.648 22L103.648 14.432 105.485 14.432 105.485 22 103.648 22zM107.289 22L107.289 14.432 112.063 14.432 112.063 15.928 109.126 15.928 109.126 17.721 111.634 17.721 111.634 19.217 109.126 19.217 109.126 22 107.289 22zM113.306 22L113.306 14.432 115.143 14.432 115.143 22 113.306 22zM116.947 22L116.947 14.432 121.721 14.432 121.721 15.928 118.784 15.928 118.784 17.435 121.292 17.435 121.292 18.876 118.784 18.876 118.784 20.504 121.809 20.504 121.809 22 116.947 22zM123.228 22L123.228 14.432 126.231 14.432C128.42 14.432 129.971 16.005 129.971 18.216 129.971 20.427 128.42 22 126.231 22L123.228 22zM125.065 15.928L125.065 20.504 126.143 20.504C127.298 20.504 128.101 19.569 128.101 18.216 128.101 16.863 127.298 15.928 126.143 15.928L125.065 15.928zM134.052 22L134.052 14.432 136.967 14.432C138.551 14.432 139.673 15.466 139.673 16.929 139.673 18.392 138.551 19.404 136.967 19.404L135.845 19.404 135.845 22 134.052 22zM135.845 15.884L135.845 17.963 136.725 17.963C137.374 17.963 137.847 17.534 137.847 16.929 137.847 16.302 137.374 15.884 136.725 15.884L135.845 15.884zM139.277 22L142.247 14.432 143.831 14.432 146.79 22 145.008 22 144.425 20.438 141.642 20.438 141.07 22 139.277 22zM143.039 16.643L142.148 19.074 143.919 19.074 143.039 16.643zM149.441 15.884L149.441 17.886 150.277 17.886C150.904 17.886 151.355 17.457 151.355 16.885 151.355 16.291 150.904 15.884 150.277 15.884L149.441 15.884zM147.648 22L147.648 14.432 150.519 14.432C152.081 14.432 153.192 15.444 153.192 16.885 153.192 17.864 152.675 18.656 151.806 19.074L153.489 22 151.531 22 150.057 19.327 149.441 19.327 149.441 22 147.648 22zM156.052 22L156.052 15.928 153.863 15.928 153.863 14.432 160.056 14.432 160.056 15.928 157.878 15.928 157.878 22 156.052 22zM161.222 22L161.222 14.432 162.806 14.432 166.216 19.096 166.216 14.432 167.921 14.432 167.921 22 166.337 22 162.938 17.336 162.938 22 161.222 22zM169.725 22L169.725 14.432 174.499 14.432 174.499 15.928 171.562 15.928 171.562 17.435 174.07 17.435 174.07 18.876 171.562 18.876 171.562 20.504 174.587 20.504 174.587 22 169.725 22zM177.799 15.884L177.799 17.886 178.635 17.886C179.262 17.886 179.713 17.457 179.713 16.885 179.713 16.291 179.262 15.884 178.635 15.884L177.799 15.884zM176.006 22L176.006 14.432 178.877 14.432C180.439 14.432 181.55 15.444 181.55 16.885 181.55 17.864 181.033 18.656 180.164 19.074L181.847 22 179.889 22 178.415 19.327 177.799 19.327 177.799 22 176.006 22zM58 13.5065905L74 10 74 22.4975519 58 26 58 13.5065905zM64.0430837 20.7540716C64.3902003 21.0835116 64.9449404 21.0817488 65.2898332 20.7501098L69.7395341 16.475466C70.086822 16.1379328 70.086822 15.5906832 69.7395341 15.2531499 69.3922462 14.9156167 68.8291813 14.9156167 68.4818934 15.2531499L64.6684617 18.9029707 63.5181066 17.8530589C63.1708187 17.5155256 62.6077538 17.5155256 62.2604659 17.8530589 61.913178 18.1905921 61.913178 18.7378417 62.2604659 19.075375L64.0430837 20.7540716zM49.9648278 19.2227672L44.8648649 19.2227672C44.980933 20.4725309 45.8757127 20.8404049 46.8907812 20.8404049 47.9255461 20.8404049 48.7401333 20.6179528 49.4506109 20.2507987L49.4506109 22.3990101C48.7422436 22.8 47.8080711 23.0901237 46.5622732 23.0901237 44.0249537 23.0901237 42.2466494 21.463847 42.2466494 18.248009 42.2466494 15.5325084 43.7548315 13.375658 46.2337653 13.375658 48.7084783 13.375658 50 15.5317885 50 18.2624072 50 18.520135 49.9767864 19.0787852 49.9648278 19.2227672zM46.2168826 15.5497863C45.5654943 15.5497863 44.8416512 16.0530034 44.8416512 17.2545332L47.5351351 17.2545332C47.5351351 16.0544432 46.8570159 15.5497863 46.2168826 15.5497863zM38.1146242 23.0901237C37.2029619 23.0901237 36.6458349 22.696333 36.2716031 22.4155681L36.2659756 25.4327109 33.6611255 26 33.6597186 13.5534758 35.9543502 13.5534758 36.0894113 14.2121935C36.4502777 13.8673566 37.1094039 13.375658 38.1308034 13.375658 39.9604591 13.375658 41.6838949 15.0624072 41.6838949 18.1666592 41.6838949 21.5552756 39.9787486 23.0901237 38.1146242 23.0901237zM37.5082562 15.7376828C36.9096261 15.7376828 36.5353943 15.9615748 36.2638652 16.2660967L36.279341 20.2284814C36.5318771 20.5085264 36.8969641 20.7345782 37.5082562 20.7345782 38.4712699 20.7345782 39.1170307 19.6611924 39.1170307 18.2256918 39.1170307 16.8305062 38.4614217 15.7376828 37.5082562 15.7376828zM29.9800074 13.5534758L32.5954091 13.5534758 32.5954091 22.8993476 29.9800074 22.8993476 29.9800074 13.5534758zM29.9800074 10.5694488L32.5954091 10 32.5954091 12.1719685 29.9800074 12.7406974 29.9800074 10.5694488zM27.2780822 16.5634196L27.2780822 22.8993476 24.6739356 22.8993476 24.6739356 13.5534758 26.9263606 13.5534758 27.0902629 14.3417773C27.6994447 13.1942407 28.9178082 13.4267717 29.2646057 13.5541957L29.2646057 16.0047694C28.933284 15.8953431 27.893595 15.7355231 27.2780822 16.5634196zM21.7792669 19.6201575C21.7792669 21.191721 23.4232136 20.7029021 23.7573491 20.5661192L23.7573491 22.7366479C23.4098482 22.9317435 22.7802666 23.0901237 21.9283969 23.0901237 20.3822288 23.0901237 19.222251 21.9245894 19.222251 20.3458268L19.2335061 11.7911361 21.7771566 11.2382452 21.7792669 13.5534758 23.7580526 13.5534758 23.7580526 15.8269516 21.7792669 15.8269516 21.7792669 19.6201575zM18.6179933 20.0751406C18.6179933 21.9944207 17.1252869 23.0901237 14.958682 23.0901237 14.060385 23.0901237 13.0783784 22.9115861 12.1097371 22.4846794L12.1097371 19.9390776C12.984117 20.4257368 14.098371 20.7907312 14.9614957 20.7907312 15.5425398 20.7907312 15.9610885 20.6309111 15.9610885 20.1384927 15.9610885 18.8656918 12 19.3451519 12 16.3928009 12 14.5051969 13.4089967 13.375658 15.5221399 13.375658 16.3852647 13.375658 17.2483895 13.511721 18.1115143 13.863757L18.1115143 16.3748031C17.3187338 15.9370979 16.3128101 15.6887289 15.5200296 15.6887289 14.9741577 15.6887289 14.6350981 15.8499888 14.6350981 16.2668166 14.6350981 17.4661867 18.6179933 16.896018 18.6179933 20.0751406z"/>
  </g>
</svg>
